<svg width="166" height="46" viewBox="0 0 166 46" fill="none" xmlns="http://www.w3.org/2000/svg">
<g clip-path="url(#clip0_1_1055)">
<path fill-rule="evenodd" clip-rule="evenodd" d="M43.5625 20.0714C43.5625 20.416 44.9372 22.7416 45.195 23.2584L49.577 31.0965C49.8348 31.5272 50.2644 32.4747 50.7799 32.4747H64.5273C65.1287 32.4747 66.1598 30.3213 66.6753 29.5461L72.3461 20.2437C72.3461 19.6408 71.1432 17.5735 70.7136 16.9706L66.2457 9.0463C65.988 8.61564 65.6443 7.58203 65.0428 7.58203H51.2954C50.694 7.58203 49.6629 9.73537 49.1474 10.5106L45.4528 16.7983C45.1091 17.229 43.5625 19.6408 43.5625 20.0714Z" fill="#03A8F3"/>
<path fill-rule="evenodd" clip-rule="evenodd" d="M25.9485 45.9976H40.3833C41.758 44.0166 42.9609 41.8632 44.2497 39.796C44.8512 38.7624 45.4526 37.6427 46.14 36.6952C46.7415 35.6616 47.3429 34.5418 48.0303 33.5944L42.7891 24.2058C42.4454 23.6029 41.2425 21.7079 41.0706 21.105H26.464C25.347 23.1722 24.0582 25.1533 22.8553 27.1343L19.1607 33.336C18.9889 33.9389 22.082 39.0208 22.4257 39.6237C22.8553 40.4851 25.7766 45.3086 25.9485 45.9976Z" fill="#03A8F3"/>
<path fill-rule="evenodd" clip-rule="evenodd" d="M6.78798 24.7226H21.4805L25.1751 18.6071C29.3853 11.6303 29.2134 12.9223 28.1824 10.855L25.5188 6.28996C24.9174 5.25636 24.4019 4.22275 23.8004 3.18915C23.3708 2.50008 22.2538 0.691267 22.1679 0.00219727H7.30351L0.000195066 12.2332C-0.0857263 12.6639 1.20309 14.7311 1.54678 15.2479C1.89046 15.8508 2.14823 16.2815 2.40599 16.7983L4.21034 19.8991C4.63995 20.7604 6.61614 24.0335 6.78798 24.7226Z" fill="#0E0B2B"/>
<path fill-rule="evenodd" clip-rule="evenodd" d="M78.3604 22.4831C78.3604 26.7898 79.1336 29.9768 82.3987 32.4746C85.6637 34.9725 92.4515 34.628 95.9742 33.0776C96.8334 32.733 97.4349 32.3885 98.1223 31.9578C98.6378 31.6133 99.9266 31.0104 99.9266 30.4074V21.794H89.7879V26.273H94.084V27.8234C94.084 28.6847 84.8904 33.2498 84.8904 22.9999C84.8904 20.3298 86.0933 17.1428 88.9287 17.1428C90.4753 17.1428 92.6233 17.0567 93.2247 19.5546C93.8262 19.21 99.1533 18.6071 99.4111 18.3487C99.497 18.2626 98.7237 12.3193 90.9908 12.3193C87.0384 12.3193 84.1171 12.4055 81.3676 15.0756C79.821 16.5399 78.3604 19.4684 78.3604 22.4831Z" fill="#0E0B2B"/>
<path fill-rule="evenodd" clip-rule="evenodd" d="M126.477 33.9388H144.262V29.0292H133.093V24.8948H143.231V20.5881H133.093V17.315H143.919V12.6638H126.477V33.9388Z" fill="#0E0B2B"/>
<path fill-rule="evenodd" clip-rule="evenodd" d="M102.848 22.4831C102.848 26.6175 103.278 28.3402 105.512 31.2688C106.113 32.044 107.488 32.9914 108.347 33.4221C111.44 34.7141 117.798 34.8002 120.634 32.1301C121.751 31.0965 123.212 28.7709 123.383 26.7898C122.009 26.7037 119.001 25.2394 117.541 25.2394C117.455 26.7898 116.166 29.2016 113.932 29.2016C112.385 29.2016 111.011 29.1154 110.151 27.4789C109.378 25.8423 108.003 17.3151 113.76 17.3151C115.822 17.3151 116.939 18.521 117.369 20.2436C118.314 20.1575 119.259 19.813 120.204 19.6407C121.149 19.3823 122.352 19.0378 123.212 19.0378C122.266 14.8172 118.658 12.3193 114.276 12.3193C110.667 12.3193 108.003 12.75 105.684 15.0756C104.137 16.626 102.848 19.3823 102.848 22.4831Z" fill="#03A8F3"/>
<path fill-rule="evenodd" clip-rule="evenodd" d="M146.152 17.4873C146.152 17.8318 146.324 18.0041 146.668 18.0041H152.854V33.9388H159.47V18.0041H166V12.6638H146.152V17.4873Z" fill="#03A8F3"/>
</g>
<defs>
<clipPath id="clip0_1_1055">
<rect width="166" height="46" fill="white"/>
</clipPath>
</defs>
</svg>
