<svg width="167" height="47" viewBox="0 0 167 47" fill="none" xmlns="http://www.w3.org/2000/svg">
<g clip-path="url(#clip0_1_1014)">
<path fill-rule="evenodd" clip-rule="evenodd" d="M44.3965 20.4035C44.3965 20.748 45.7712 23.0736 46.029 23.5904L50.411 31.4286C50.6687 31.8592 51.0983 32.8067 51.6139 32.8067H65.3613C65.9627 32.8067 66.9938 30.6534 67.5093 29.8782L73.1801 20.5757C73.1801 19.9728 71.9772 17.9056 71.5476 17.3026L67.0797 9.37834C66.8219 8.94767 66.4783 7.91406 65.8768 7.91406H52.1294C51.528 7.91406 50.4969 10.0674 49.9814 10.8426L46.2868 17.1304C45.9431 17.561 44.3965 19.9728 44.3965 20.4035Z" fill="white"/>
<path fill-rule="evenodd" clip-rule="evenodd" d="M26.7825 46.3297H41.2173C42.592 44.3486 43.7949 42.1952 45.0837 40.128C45.6852 39.0944 46.2866 37.9747 46.974 37.0272C47.5754 35.9936 48.1769 34.8739 48.8643 33.9264L43.6231 24.5378C43.2794 23.9349 42.0765 22.0399 41.9046 21.437H27.298C26.181 23.5042 24.8922 25.4853 23.6893 27.4664L19.9947 33.668C19.8228 34.2709 22.916 39.3528 23.2597 39.9558C23.6893 40.8171 26.6106 45.6406 26.7825 46.3297Z" fill="white"/>
<path fill-rule="evenodd" clip-rule="evenodd" d="M7.62196 25.0549H22.3145L26.0091 18.9394C30.2193 11.9625 30.0474 13.2545 29.0164 11.1873L26.3528 6.62224C25.7514 5.58863 25.2358 4.55503 24.6344 3.52142C24.2048 2.83235 23.0878 1.02354 23.0019 0.334473H8.13749L0.834179 12.5655C0.748258 12.9961 2.03708 15.0633 2.38076 15.5801C2.72445 16.1831 2.98221 16.6138 3.23998 17.1306L5.04432 20.2314C5.47393 21.0927 7.45012 24.3658 7.62196 25.0549Z" fill="white"/>
<path fill-rule="evenodd" clip-rule="evenodd" d="M79.1943 22.8151C79.1943 27.1218 79.9676 30.3088 83.2326 32.8067C86.4976 35.3045 93.2854 34.96 96.8082 33.4096C97.6674 33.0651 98.2689 32.7205 98.9562 32.2899C99.4718 31.9453 100.761 31.3424 100.761 30.7395V22.1261H90.6219V26.605H94.9179V28.1554C94.9179 29.0168 85.7244 33.5819 85.7244 23.332C85.7244 20.6618 86.9273 17.4749 89.7627 17.4749C91.3092 17.4749 93.4573 17.3887 94.0587 19.8866C94.6602 19.5421 99.9873 18.9391 100.245 18.6807C100.331 18.5946 99.5577 12.6514 91.8248 12.6514C87.8724 12.6514 84.9511 12.7375 82.2016 15.4076C80.655 16.8719 79.1943 19.8005 79.1943 22.8151Z" fill="white"/>
<path fill-rule="evenodd" clip-rule="evenodd" d="M127.311 34.2711H145.096V29.3615H133.926V25.2271H144.065V20.9204H133.926V17.6473H144.753V12.9961H127.311V34.2711Z" fill="white"/>
<path fill-rule="evenodd" clip-rule="evenodd" d="M103.682 22.8151C103.682 26.9496 104.112 28.6722 106.346 31.6008C106.947 32.376 108.322 33.3235 109.181 33.7541C112.274 35.0461 118.632 35.1323 121.468 32.4621C122.585 31.4285 124.045 29.1029 124.217 27.1218C122.843 27.0357 119.835 25.5714 118.375 25.5714C118.289 27.1218 117 29.5336 114.766 29.5336C113.219 29.5336 111.845 29.4474 110.985 27.8109C110.212 26.1744 108.837 17.6471 114.594 17.6471C116.656 17.6471 117.773 18.853 118.203 20.5757C119.148 20.4895 120.093 20.145 121.038 19.9727C121.983 19.7143 123.186 19.3698 124.045 19.3698C123.1 15.1492 119.492 12.6514 115.11 12.6514C111.501 12.6514 108.837 13.082 106.518 15.4076C104.971 16.9581 103.682 19.7143 103.682 22.8151Z" fill="white"/>
<path fill-rule="evenodd" clip-rule="evenodd" d="M146.986 17.8196C146.986 18.1641 147.158 18.3364 147.502 18.3364H153.688V34.2711H160.304V18.3364H166.834V12.9961H146.986V17.8196Z" fill="white"/>
</g>
<defs>
<clipPath id="clip0_1_1014">
<rect width="166" height="46" fill="white" transform="translate(0.833984 0.332031)"/>
</clipPath>
</defs>
</svg>
